<?xml version="1.0" standalone="no"?>
<!DOCTYPE svg PUBLIC "-//W3C//DTD SVG 20010904//EN"
 "http://www.w3.org/TR/2001/REC-SVG-20010904/DTD/svg10.dtd">
<svg version="1.0" xmlns="http://www.w3.org/2000/svg"
 width="512.000000pt" height="512.000000pt" viewBox="0 0 512.000000 512.000000"
 preserveAspectRatio="xMidYMid meet">
<metadata>
Created by potrace 1.11, written by Peter Selinger 2001-2013
</metadata>
<g transform="translate(0.000000,512.000000) scale(0.100000,-0.100000)"
fill="#000000" stroke="none">
<path d="M459 4089 c-89 -18 -170 -97 -193 -186 -9 -36 -12 -363 -11 -1363 1
-1313 1 -1315 22 -1360 28 -60 85 -115 142 -137 43 -17 137 -18 1636 -18
l1590 0 45 23 c58 31 86 57 118 112 l27 45 5 483 5 482 504 -504 c278 -278
507 -503 510 -501 5 2 6 2725 2 2785 -1 8 -230 -214 -511 -495 l-509 -509 -3
484 c-3 436 -5 488 -20 516 -30 55 -69 94 -122 122 l-51 26 -1576 1 c-867 0
-1592 -3 -1610 -6z"/>
</g>
</svg>
